<svg xmlns="http://www.w3.org/2000/svg" width="440.16" height="84.14" viewBox="0 0 440.16 84.14">
  <title>Asset 6</title>
  <g>
    <path d="M97.42,64.06V60h2.7A7.38,7.38,0,0,0,104,59c1.07-.64,1.61-2.18,1.61-4.64V14.05q0-3.68-1.61-4.64a7.47,7.47,0,0,0-3.88-1h-2.7V4.35h28.22v4.1h-2.7a7.47,7.47,0,0,0-3.79.92c-1.07.61-1.61,2.06-1.61,4.35V59.3h16.55a6.08,6.08,0,0,0,5-2.09,12.44,12.44,0,0,0,2.39-5.27l1.14-6.28h4.79l-.61,18.4Z"/>
    <path d="M152.21,64.06V60h1.13a12.46,12.46,0,0,0,3-.38A4.74,4.74,0,0,0,158.87,58a5.42,5.42,0,0,0,1-3.59V28.6a5,5,0,0,0-1-3.43,5,5,0,0,0-2.53-1.46,12.46,12.46,0,0,0-3-.38h-.78V19.24H171.2V54.36a5.58,5.58,0,0,0,1,3.68,4.68,4.68,0,0,0,2.48,1.55,12.37,12.37,0,0,0,3,.38h1v4.09ZM165.1,11.37A7.64,7.64,0,0,1,160.53,10a5,5,0,0,1-1.88-4.35q0-3.11,1.88-4.39A7.77,7.77,0,0,1,165.1,0a8,8,0,0,1,4.62,1.3q1.91,1.29,1.91,4.39A5,5,0,0,1,169.72,10,7.89,7.89,0,0,1,165.1,11.37Z"/>
    <path d="M201.24,64.9q-6.09,0-9.4-2.93t-3.31-10.2V24.59h-6.62V20.66a11.24,11.24,0,0,0,4.44-.88,10.56,10.56,0,0,0,3.48-2.3q2.7-2.76,4-8.61h6V19.24h11.24v5.35H199.85V51.35q0,7.69,6,7.7a22.47,22.47,0,0,0,3.14-.21,29.12,29.12,0,0,0,2.87-.55v4.77a17.27,17.27,0,0,1-4.18,1.25A32.5,32.5,0,0,1,201.24,64.9Z"/>
    <path d="M217.44,64.06V60H218a10.41,10.41,0,0,0,4.87-1c1.28-.67,1.92-2.28,1.92-4.85V28.69q0-3.6-1.78-4.56a9.84,9.84,0,0,0-4.66-1h-.27V19.24H234.6l1.14,6.27h.43c1.74-3.12,3.7-5.12,5.88-6a19.9,19.9,0,0,1,7.36-1.3,17.7,17.7,0,0,1,7.93,1.68,10.5,10.5,0,0,1,5.05,5.6h.7q2.61-4.68,6.18-6a22.36,22.36,0,0,1,7.66-1.3q6.63,0,10.46,3.89t3.83,12.34V54c0,2.56.53,4.19,1.61,4.89a8.35,8.35,0,0,0,4.57,1h.26v4.09H279.9v-28c0-3.63-.59-6.43-1.75-8.41s-3.19-3-6.09-3a7,7,0,0,0-4.88,1.67,9.61,9.61,0,0,0-2.66,4.44,20.91,20.91,0,0,0-.83,6V54q0,3.84,1.62,4.89a8.33,8.33,0,0,0,4.57,1h.26v4.09H252.37v-28q0-5.44-1.74-8.41c-1.16-2-3.17-3-6-3a7,7,0,0,0-5.1,1.84,10.34,10.34,0,0,0-2.65,4.85,26,26,0,0,0-.79,6.53V54.45Q236.08,58,238,59a10.23,10.23,0,0,0,4.74,1H243v4.09Z"/>
    <path d="M315.87,64.9a14.32,14.32,0,0,1-9.67-3.35c-2.61-2.22-3.92-5.63-3.92-10.2s1.62-7.78,4.88-10,8.15-3.37,14.72-3.6l7.22-.25V32.78a26.53,26.53,0,0,0-.43-5.06,6.25,6.25,0,0,0-1.79-3.47A6.06,6.06,0,0,0,322.66,23q-4,0-5.31,2.55A14.18,14.18,0,0,0,316,32a18.24,18.24,0,0,1-7.58-1.21,4.31,4.31,0,0,1-2.52-4.22,5.9,5.9,0,0,1,2.3-4.85,14.8,14.8,0,0,1,6.19-2.68,40.52,40.52,0,0,1,8.58-.84q8.7,0,13.06,3.22t4.36,11.08V54c0,2.28.39,3.85,1.17,4.68S343.77,60,345.74,60H346v4.09H331.54l-1.74-6.27h-.7a34.08,34.08,0,0,1-3.57,3.85,11.91,11.91,0,0,1-4,2.42A16.44,16.44,0,0,1,315.87,64.9Zm3.74-5.77a8.72,8.72,0,0,0,6.93-3q2.56-3,2.56-8.07V41.65l-4.52.25c-4.07.17-6.87,1.07-8.41,2.72s-2.31,4-2.31,7.15Q313.86,59.14,319.61,59.13Z"/>
    <path d="M348.7,84.14V80h.87a13.06,13.06,0,0,0,3.05-.38,4.74,4.74,0,0,0,2.57-1.55,5.56,5.56,0,0,0,1-3.68V29.1q0-3.75-1.87-4.76a9.36,9.36,0,0,0-4.49-1h-.78V19.24h16.37l1.31,6.94h.35a16,16,0,0,1,5.05-5.65,14.48,14.48,0,0,1,8.28-2.13q8.61,0,13.19,5.6t4.57,17.73q0,12.14-4.53,17.69T380.58,65a15.52,15.52,0,0,1-8.1-1.88A14.48,14.48,0,0,1,367.43,58h-.52c.11.89.21,2,.3,3.26s.16,2.51.22,3.68.08,2.15.08,2.93v6.61a5.42,5.42,0,0,0,1,3.59A4.68,4.68,0,0,0,371,79.66a12.37,12.37,0,0,0,3.05.38h1.3v4.1Zm28.83-25a7.25,7.25,0,0,0,7-4.39q2.15-4.4,2.14-13t-2.14-13a7.25,7.25,0,0,0-7-4.43q-5.83,0-7.93,4.39t-2.09,13q0,8.63,2.09,13T377.53,59.13Z"/>
    <path d="M422,64.9q-8.35,0-12.32-2.59a7.88,7.88,0,0,1-4-6.86,5.51,5.51,0,0,1,1.22-3.89,6.24,6.24,0,0,1,2.88-1.76,11.45,11.45,0,0,1,3-.46,12.48,12.48,0,0,0,2.39,7.91,8.4,8.4,0,0,0,7,3c3.07,0,5.34-.61,6.79-1.84a5.79,5.79,0,0,0,2.18-4.6,5.49,5.49,0,0,0-1-3.22A9.25,9.25,0,0,0,426.87,48a47.74,47.74,0,0,0-6.49-2.76A33.68,33.68,0,0,1,410,39.68q-3.54-3-3.53-8.65,0-6.36,4.88-9.54t12.89-3.17q7.48,0,10.88,2.38t3.4,5.39a4.75,4.75,0,0,1-1.87,4q-1.87,1.42-6,1.42a9.93,9.93,0,0,0-1.91-6.44A7,7,0,0,0,423,22.75a8.77,8.77,0,0,0-5.45,1.55,5,5,0,0,0-2,4.22,5.11,5.11,0,0,0,1,3.26,10.32,10.32,0,0,0,3.53,2.59A54.11,54.11,0,0,0,427,37.13a30.57,30.57,0,0,1,9.67,5.31,10.52,10.52,0,0,1,3.49,8.33q0,6.85-4.88,10.49T422,64.9Z"/>
    <path d="M56.86,46.18a8.92,8.92,0,0,0-8.7,6.93H17.62a9,9,0,0,0-2.44-4.37L30.27,22.61a9,9,0,1,0-3.44-2L11.77,46.65a8.93,8.93,0,1,0,5.85,10.46H48.16a8.92,8.92,0,1,0,8.7-10.93Z"/>
  </g>
</svg>
